<svg width="100" height="100" viewBox="0 0 16 16" xmlns="http://www.w3.org/2000/svg" aria-hidden="true" class="iconify iconify--noto"><path fill="#ca2c31" d="m0.471 8.966 2.042 -2.013 3.478 -0.616 -0.344 1.82L0.946 9.602l-0.304 -0.131z"/><path fill="#a02422" d="M2.868 7.47 0.65 9.485l1.631 0.795 2.476 -1.264v-0.596l0.506 -1.365zm5.247 3.549 -1.071 0.465 -1.011 2.144s0.89 1.971 0.93 1.971 0.546 0.04 0.546 0.04l1.8 -2.013 0.455 -3.438z"/><path d="M7.063 12.605s0.596 -0.121 1.021 -0.324 0.95 -0.505 0.95 -0.505l-0.193 1.679 -1.881 2.141s-0.074 -0.091 -0.386 -0.771c-0.249 -0.542 -0.335 -0.736 -0.335 -0.736z" fill="#ca2c31"/><path d="M3.947 10.082s-0.718 -0.06 -1.504 0.934c-0.718 0.907 -1.054 2.385 -1.184 2.765s-0.441 0.458 -0.338 0.631 0.552 0.164 1.106 0.095 1.029 -0.242 1.029 -0.242 -0.024 0.06 -0.104 0.19c-0.029 0.046 -0.129 0.113 -0.121 0.181 0.018 0.164 1.42 0.168 2.54 -0.985 1.21 -1.244 0.623 -2.264 0.623 -2.264z" fill="#f7d74d"/><path d="M4.164 10.661s-0.774 0.041 -1.414 1.035 -0.938 2.145 -0.876 2.223c0.06 0.077 1.252 -0.354 1.539 -0.268 0.196 0.06 0.095 0.259 0.147 0.311 0.044 0.044 0.561 0.117 1.399 -0.79 0.839 -0.907 0.64 -2.183 0.64 -2.183z" fill="#fbf0b4"/><path d="M4.544 9.305s-0.389 0.346 -0.527 0.545 -0.139 0.216 -0.13 0.276 0.152 0.719 0.751 1.296c0.735 0.709 1.391 0.804 1.486 0.804s0.726 -0.709 0.726 -0.709z" fill="#858585"/><path d="M6.263 11.405s0.63 0.414 1.686 0.059c1.444 -0.485 2.502 -1.57 3.814 -2.94 1.265 -1.323 2.326 -2.964 2.326 -2.964l-0.744 -2.491z" fill="#437687"/><path d="m8.499 10.041 0.174 -0.54 0.435 0.061s0.331 0.156 0.575 0.27 0.557 0.2 0.557 0.2l-0.619 0.522s-0.338 -0.128 -0.584 -0.235c-0.278 -0.121 -0.539 -0.279 -0.539 -0.279" fill="#3f545f"/><path d="M10.54 2.018s-1.202 0.698 -2.926 2.329c-1.554 1.47 -2.705 2.8 -2.984 3.931 -0.233 0.948 -0.109 1.522 0.42 2.144 0.559 0.657 1.214 0.984 1.214 0.984s0.492 0.007 2.547 -1.574C11.375 7.857 13.429 4.553 13.429 4.553z" fill="#8dafbf"/><path d="M13.023 5.23s-1.046 -0.446 -1.792 -1.488c-0.741 -1.034 -0.682 -1.732 -0.682 -1.732s0.62 -0.486 2.014 -1.042c0.938 -0.374 2.214 -0.565 2.634 -0.254s-0.287 1.873 -0.287 1.873l-1.289 2.495z" fill="#d83f22"/><path d="M8.521 10.05s-0.904 -0.461 -1.479 -1.117c-1.087 -1.239 -1.313 -2.599 -1.313 -2.599l0.546 -0.641S6.412 7.138 7.579 8.386c0.76 0.814 1.554 1.186 1.554 1.186s-0.159 0.134 -0.329 0.264c-0.109 0.084 -0.282 0.214 -0.282 0.214" fill="#6896a5"/><path d="M14.089 5.56s0.542 -0.654 1.056 -2.127c0.718 -2.055 0.092 -2.678 0.092 -2.678s-0.211 0.978 -0.945 2.336c-0.589 1.089 -1.301 2.125 -1.301 2.125s0.393 0.176 0.605 0.237c0.268 0.077 0.492 0.106 0.492 0.106" fill="#a02422"/><path d="M4.976 8.707c0.163 0.155 0.409 -0.007 0.57 -0.388 0.163 -0.38 0.16 -0.593 0.035 -0.682 -0.155 -0.113 -0.415 0.134 -0.529 0.352 -0.125 0.242 -0.199 0.6 -0.076 0.718m5.643 -6.191s-0.951 0.684 -1.966 1.614c-0.931 0.854 -1.549 1.521 -1.634 1.676 -0.09 0.166 -0.091 0.401 -0.021 0.521s0.225 0.182 0.366 0.077c0.141 -0.106 1.147 -1.219 2.056 -2.014 0.831 -0.728 1.472 -1.189 1.472 -1.189s0.26 -0.46 0.217 -0.565c-0.043 -0.106 -0.491 -0.121 -0.491 -0.121" fill="#b3e1ee"/><path d="M10.619 2.516s0.703 -0.539 1.468 -0.917c0.711 -0.352 1.419 -0.646 1.546 -0.391 0.121 0.242 -0.671 0.573 -1.369 1.018s-1.369 0.976 -1.369 0.976 -0.102 -0.188 -0.169 -0.361a3 3 0 0 1 -0.107 -0.324" fill="#ed6a65"/><path d="M11.199 4.906c-0.696 -0.641 -1.665 -0.469 -2.143 0.101 -0.49 0.588 -0.454 1.485 0.125 2.025 0.526 0.49 1.505 0.601 2.095 -0.086 0.525 -0.61 0.492 -1.516 -0.077 -2.04" fill="#e1e1e1"/><path d="M9.416 5.234c-0.414 0.406 -0.391 1.211 0.101 1.579 0.43 0.321 1.04 0.305 1.423 -0.086s0.383 -1.103 0.024 -1.47c-0.412 -0.421 -1.074 -0.487 -1.548 -0.022" fill="#3f545f"/><path d="M6.25 9.611s0.774 -0.785 0.859 -0.7 0.074 0.561 -0.296 1.091C6.441 10.533 5.625 11.476 4.979 12.113c-0.637 0.626 -1.536 1.343 -1.621 1.33 -0.066 -0.01 -0.335 -0.144 -0.443 -0.274 -0.105 -0.129 0.209 -0.738 0.335 -0.939 0.128 -0.201 3 -2.619 3 -2.619" fill="#a02524"/><path d="M2.654 12.731c-0.01 0.18 0.265 0.443 0.265 0.443L7.109 8.912s-0.196 -0.221 -0.774 0.138c-0.583 0.362 -1.093 0.797 -1.845 1.526 -1.049 1.018 -1.826 1.975 -1.836 2.155" fill="#ca2c31"/><path d="M2.382 4.619c-0.139 0.139 -0.145 0.361 0.01 0.489 0.138 0.114 0.361 0.04 0.445 -0.063s0.074 -0.325 -0.037 -0.435c-0.111 -0.111 -0.333 -0.075 -0.417 0.009" fill="#fff"/><path d="M5.128 4.456c-0.105 0.116 -0.071 0.289 0.026 0.352s0.244 0.058 0.315 -0.03c0.064 -0.079 0.071 -0.236 -0.026 -0.334 -0.085 -0.084 -0.247 -0.064 -0.315 0.011" opacity=".5" fill="#fff"/><path d="M6.944 1.486s0.152 -0.435 0.242 -0.44c0.091 -0.005 0.223 0.435 0.223 0.435s0.451 0.005 0.481 0.071c0.039 0.085 -0.289 0.37 -0.289 0.37s0.106 0.425 0.056 0.476c-0.056 0.056 -0.445 -0.168 -0.445 -0.168s-0.4 0.279 -0.486 0.203c-0.075 -0.066 0.081 -0.516 0.081 -0.516s-0.375 -0.274 -0.355 -0.35c0.029 -0.107 0.491 -0.081 0.491 -0.081m5.183 10.43c0.151 0.084 0.341 0.036 0.411 -0.125 0.064 -0.144 -0.054 -0.315 -0.16 -0.361s-0.292 0.015 -0.36 0.136c-0.066 0.12 0.018 0.3 0.109 0.35m2.147 -3.686c-0.086 -0.134 -0.273 -0.177 -0.394 -0.07 -0.117 0.105 -0.089 0.27 -0.022 0.354s0.244 0.115 0.351 0.046 0.117 -0.25 0.065 -0.33" fill="#fff"/></svg>